<svg width="416" height="416" viewBox="0 0 416 416" fill="none" xmlns="http://www.w3.org/2000/svg">
<circle cx="208" cy="208" r="200" fill="#F2C249" stroke="#593838" stroke-width="15"/>
<circle cx="208" cy="208" r="175" fill="#E0CCA3" stroke="#593838" stroke-width="12"/>
<circle cx="142.5" cy="81.5" r="16.5" fill="#F0F0F0" stroke="#593838" stroke-width="12"/>
<circle cx="264.5" cy="87.5" r="16.5" fill="#F0F0F0" stroke="#593838" stroke-width="12"/>
<circle cx="327.5" cy="255.5" r="16.5" fill="#F0F0F0" stroke="#593838" stroke-width="12"/>
<circle cx="164.5" cy="300.5" r="16.5" fill="#F0F0F0" stroke="#593838" stroke-width="12"/>
<circle cx="286.5" cy="232.5" r="12" fill="#9DDE6A" stroke="#593838" stroke-width="11"/>
<circle cx="182.5" cy="345.5" r="12" fill="#9DDE6A" stroke="#593838" stroke-width="11"/>
<circle cx="137.5" cy="177.5" r="12" fill="#9DDE6A" stroke="#593838" stroke-width="11"/>
<circle cx="304.5" cy="160.5" r="12" fill="#9DDE6A" stroke="#593838" stroke-width="11"/>
<circle cx="233.5" cy="134.5" r="12" fill="#9DDE6A" stroke="#593838" stroke-width="11"/>
<circle cx="78.5" cy="160.5" r="12" fill="#ED9184" stroke="#593838" stroke-width="11"/>
<circle cx="95.5" cy="260.5" r="12" fill="#ED9184" stroke="#593838" stroke-width="11"/>
<circle cx="251.5" cy="322.5" r="12" fill="#ED9184" stroke="#593838" stroke-width="11"/>
<circle cx="172.5" cy="125.5" r="12" fill="#ED9184" stroke="#593838" stroke-width="11"/>
<rect x="33" y="201" width="350" height="14" fill="#593838"/>
<rect x="79.3066" y="326.794" width="350" height="14" transform="rotate(-45 79.3066 326.794)" fill="#593838"/>
<rect x="201" y="383" width="350" height="14" transform="rotate(-90 201 383)" fill="#593838"/>
<rect x="326.794" y="336.693" width="350" height="14" transform="rotate(-135 326.794 336.693)" fill="#593838"/>
<circle cx="208" cy="208" r="95" fill="#6888A6"/>
<rect x="190.056" y="153.85" width="38" height="38.76" fill="#333333"/>
<path d="M208 235.677L166.864 192.072H249.136L208 235.677Z" fill="#333333"/>
<rect x="164.722" y="248.597" width="86.5556" height="12.92" fill="#333333"/>
</svg>

